<svg width="320" height="175" viewBox="0 0 320 175" fill="none" xmlns="http://www.w3.org/2000/svg">
    <path d="M300 26C314 76 298 130 298 130C298 130 305 93 295 74C303 103 288 120 280 127C277 130 275 132 275 132C275 132 275 128 275 127C270 86 295 34 295 34C280 47 270 91 266 115C271 74 263 56 263 56C266 89 258 117 255 127C254 129 253 132 253 132C253 132 252 128 252 127C246 103 249 42 249 42C243 56 239 85 238 106C238 71 226 49 226 49C238 95 222 125 222 125C225 84 214 74 214 74C222 91 203 124 203 124C196 80 214 18 214 18C203 33 196 70 193 96C193 62 178 49 178 49C193 84 178 126 178 126C179 85 168 66 168 66C170 84 155 116 149 127C148 129 147 132 147 132C147 132 146 128 146 127C141 97 152 32 152 32C139 42 131 110 130 127C129 129 129 132 129 132C129 132 129 128 129 127C127 101 127 71 127 71C122 77 118 132 118 132L118 127C121 59 109 36 109 36C115 70 104 114 100 127C99 129 99 132 99 132C98 132 97 128 97 127C88 107 99 60 99 60C89 73 86 94 85 110C86 28 78 1 78 1C83 31 73 109 70 127C70 128 70 128 70 127H70C72 99 62 49 62 49C62 71 57 114 55 127C55 129 55 132 55 132C54 130 53 128 53 127C40 92 55 32 55 32C36 56 34 112 33 127C33 128 33 128 33 127C33 127 34 133 32 127C23 108 34 49 34 49C23 61 18 112 17 127C17 129 17 132 17 132C17 132 16 128 16 127C7 77 33 22 33 22C7 37 0 132 0 132V175H320V127C320 39 300 26 300 26Z" fill="#517664" fill-opacity="1"/>
</svg>
